<svg xmlns="http://www.w3.org/2000/svg" width="42" height="37" viewBox="0 0 42 37"><g><g><path fill="#fff" d="M42 4.04v24.557c0 2.227-1.84 4.04-4.102 4.04h-.328v.323c0 2.228-1.84 4.04-4.101 4.04H4.102C1.84 37 0 35.188 0 32.96V4.037C.001 1.81 1.84 0 4.102 0h33.796C40.16 0 42 1.812 42 4.04zm-1.64 21.35a2.48 2.48 0 0 1-.821.138H37.57v5.493h.328c1.357 0 2.461-1.087 2.461-2.424zm0-8.402a2.48 2.48 0 0 1-.821.138h-5.578a.814.814 0 0 1-.82-.807c0-.446.367-.808.82-.808h1.969v-5.01c0-1.335-1.104-2.422-2.461-2.422H4.102a4.114 4.114 0 0 1-2.46-.81V32.96c-.001 1.336 1.103 2.423 2.46 2.423h29.367c1.357 0 2.46-1.087 2.46-2.423v-7.433H25.267c-2.805 0-5.086-2.247-5.086-5.008 0-2.762 2.281-5.009 5.086-5.009h1.19c.452 0 .82.362.82.808a.814.814 0 0 1-.82.807h-1.19c-1.9 0-3.446 1.523-3.446 3.394 0 1.87 1.546 3.393 3.446 3.393H36.73l.019-.001h2.789c.452 0 .82-.362.82-.807zm0-12.949c0-1.336-1.105-2.423-2.462-2.423H4.102c-1.357 0-2.461 1.087-2.461 2.423 0 1.337 1.104 2.424 2.46 2.424H33.47c2.261 0 4.101 1.812 4.101 4.039v5.01h1.969c.452 0 .82-.364.82-.81zM27.685 20.525c0 1.336-1.104 2.423-2.461 2.423-1.357 0-2.461-1.087-2.461-2.423 0-1.337 1.104-2.424 2.46-2.424 1.358 0 2.462 1.087 2.462 2.424zm-1.641 0a.815.815 0 0 0-.82-.808.815.815 0 0 0-.82.808c0 .445.367.807.82.807.452 0 .82-.362.82-.807zm-.78-16.272c0 .212-.087.42-.24.57a.832.832 0 0 1-1.16 0 .808.808 0 0 1-.24-.57c0-.213.088-.421.24-.572a.835.835 0 0 1 .58-.236c.216 0 .428.086.58.236.153.15.24.359.24.572zm-3.445 0a.814.814 0 0 1-.82.807H9.843a.814.814 0 0 1-.82-.808c0-.446.367-.807.82-.807H21c.453 0 .82.361.82.807zm9.352 12.065a.808.808 0 0 1-.24.571.83.83 0 0 1-1.16 0 .808.808 0 0 1-.24-.571c0-.213.087-.421.24-.571a.833.833 0 0 1 1.16 0c.152.15.24.358.24.57zm-14.294 6.464a5.968 5.968 0 0 1 1.332 3.77c0 3.265-2.625 5.937-5.906 6.079v.814a.814.814 0 0 1-.82.809.814.814 0 0 1-.821-.809v-.807h-1.64v.807a.814.814 0 0 1-.821.809.814.814 0 0 1-.82-.809v-.807H3.938a.814.814 0 0 1-.82-.808c0-.447.367-.808.82-.808h.49v-16.48h-.49a.814.814 0 0 1-.82-.808c0-.447.367-.808.82-.808h3.444v-.808c0-.446.367-.808.82-.808.453 0 .82.362.82.808v.808h1.641v-.808c0-.446.367-.808.82-.808.453 0 .82.362.82.808v.815c3.282.14 5.907 2.813 5.907 6.079a5.97 5.97 0 0 1-1.332 3.77zm-1.923 0c0-.218.09-.426.247-.578a4.402 4.402 0 0 0 1.367-3.192c0-2.465-2.036-4.47-4.539-4.47H6.07v16.48h5.96c2.503 0 4.54-2.006 4.54-4.47a4.402 4.402 0 0 0-1.368-3.193.802.802 0 0 1-.247-.577zm.05-3.77c0 1.692-1.398 3.07-3.117 3.07H8.284a.814.814 0 0 1-.82-.809V16.75c0-.446.367-.808.82-.808h3.604c1.72 0 3.118 1.377 3.118 3.07zm-1.64 0c0-.802-.663-1.455-1.477-1.455H9.104v2.909h2.784c.814 0 1.477-.653 1.477-1.454zm1.64 7.54c0 1.692-1.398 3.07-3.117 3.07H8.284a.814.814 0 0 1-.82-.808V24.29c0-.447.367-.808.82-.808h3.604c1.72 0 3.118 1.377 3.118 3.07zm-1.64 0c0-.802-.663-1.455-1.477-1.455H9.104v2.909h2.784c.814 0 1.477-.652 1.477-1.454z"/></g></g></svg>