<svg xmlns="http://www.w3.org/2000/svg" width="42" height="42"><path fill="#fff" d="M26.876 24.752l-.62.343 5.302 5.302 3.746-2.076a.82.82 0 01.795 0l5.478 3.035a.82.82 0 01.423.718v6.07a.82.82 0 01-.423.718L36.1 41.897a.819.819 0 01-.795 0l-5.478-3.035a.82.82 0 01-.423-.717v-6.071a.82.82 0 01.423-.718l.238-.132-5.3-5.301-3.366 1.864a.819.819 0 01-.796 0l-3.365-1.864-5.301 5.301.238.132a.82.82 0 01.423.718v6.07a.82.82 0 01-.423.718l-5.478 3.035a.819.819 0 01-.795 0L.423 38.862A.82.82 0 010 38.145v-6.071a.82.82 0 01.423-.718L5.9 28.321a.82.82 0 01.795 0l3.782 2.095a.821.821 0 01.148-.203l5.118-5.118-.62-.343a.82.82 0 01-.422-.718v-4.908l-6.53-6.267-1.476.818a.819.819 0 01-.795 0L.423 10.642A.82.82 0 010 9.924v-6.07a.82.82 0 01.423-.718L5.9.101a.822.822 0 01.795 0l5.478 3.035a.82.82 0 01.423.718v6.07a.82.82 0 01-.423.718l-2.5 1.385 5.443 5.224.007-.005 5.479-3.035a.822.822 0 01.795 0l5.478 3.035a.819.819 0 01.343.369l5.509-5.365-2.902-1.608a.82.82 0 01-.423-.718v-6.07a.82.82 0 01.423-.718L35.304.101a.822.822 0 01.795 0l5.478 3.035a.82.82 0 01.423.718v6.07a.822.822 0 01-.423.718L36.1 13.677a.82.82 0 01-.795 0l-1.077-.597-6.928 6.747v4.207a.82.82 0 01-.423.718zM40.359 5.246l-3.837 2.127v4.194l3.837-2.126zm-8.443-1.392l3.786 2.097 3.785-2.097-3.785-2.097zm2.564 7.49a.249.249 0 01.005.004l.396.22V7.372l-3.837-2.127V9.44zM5.478 7.374L1.641 5.246v4.195l3.837 2.126zm4.606-3.52L6.298 1.758 2.513 3.854 6.298 5.95zm.872 5.588V5.246L7.12 7.373v4.194l.784-.434.008-.005zm-5.478 26.15l-3.837-2.126v4.195l3.837 2.126zm4.606-3.518l-3.786-2.098-3.785 2.098 3.785 2.097zm.872 1.392L7.12 35.592v4.195l3.837-2.126zm29.403 0l-3.837 2.126v4.195l3.837-2.126zm-8.328-1.328l3.67 2.033 3.786-2.097-3.785-2.098-3.477 1.927a.83.83 0 01-.194.235zm-.987 5.523l3.837 2.126v-4.195l-3.837-2.126zM20.18 21.483l-3.838-2.127v4.195l1.133.628 2.705 1.498zm4.605-3.52L21 15.867l-3.785 2.098L21 20.06zm.873 1.393l-3.838 2.127v4.194l2.704-1.498 1.134-.628zM15.75 5.248a.825.825 0 01-.82.82.828.828 0 01-.58-.24.826.826 0 01-.24-.58c0-.215.087-.427.24-.58a.826.826 0 01.58-.24.83.83 0 01.58.24.83.83 0 01.24.58zm12.223 0a.82.82 0 01-.82.82h-9.188a.82.82 0 010-1.64h9.187a.82.82 0 01.82.82zM24.445 36.75a.82.82 0 01-.82.82H14.93a.82.82 0 010-1.64h8.695a.82.82 0 01.82.82zm3.528 0a.827.827 0 01-.24.58.827.827 0 01-.58.24.827.827 0 01-.58-.24.827.827 0 01-.241-.58c0-.216.088-.428.24-.58a.827.827 0 01.58-.24.823.823 0 01.82.82zm9.638-14.415a.824.824 0 01-.82.82.824.824 0 01-.82-.82c0-.216.087-.427.24-.58a.826.826 0 01.58-.241.825.825 0 01.82.821zm0-3.056a.83.83 0 01-.24.58.827.827 0 01-.58.24.827.827 0 01-.58-.24.828.828 0 01-.24-.58c0-.216.087-.427.24-.58a.825.825 0 011.16 0c.153.153.24.364.24.58zm0-3.056a.823.823 0 01-1.4.58.826.826 0 01-.24-.58c0-.216.087-.426.24-.58a.825.825 0 011.16 0c.153.154.24.364.24.58zm0 9.168a.829.829 0 01-.24.58.827.827 0 01-.58.24.827.827 0 01-.58-.24.828.828 0 01-.24-.58c0-.216.087-.427.24-.58a.824.824 0 011.16 0c.153.153.24.364.24.58zm-31.5-3.056a.824.824 0 01-.82.82.824.824 0 01-.82-.82c0-.216.088-.428.24-.58a.825.825 0 011.16 0c.153.153.24.364.24.58zm0-3.055a.823.823 0 01-1.4.58.823.823 0 010-1.161.826.826 0 01.58-.24.825.825 0 01.82.82zm0-3.056a.825.825 0 01-.82.82.826.826 0 01-.58-.24.826.826 0 01-.24-.58c0-.217.088-.428.24-.58a.826.826 0 01.58-.241.825.825 0 01.82.82zm0 9.167a.83.83 0 01-.24.58.827.827 0 01-.58.24.827.827 0 01-.58-.24.826.826 0 01-.24-.58c0-.216.088-.428.24-.58a.827.827 0 01.58-.24c.216 0 .427.087.58.24.153.153.24.364.24.58z"/></svg>