<svg xmlns="http://www.w3.org/2000/svg" width="33" height="34"><path fill="#fff" d="M12.62 2.975a3.958 3.958 0 013.958 3.958v.026a3.958 3.958 0 11-7.916 0v-.026a3.958 3.958 0 013.958-3.958zm8.409 7.703a4.45 4.45 0 014.45 4.451v.023a4.45 4.45 0 01-8.901 0v-.023a4.451 4.451 0 014.45-4.451zm-16.579 0a4.451 4.451 0 014.452 4.451v.023a4.45 4.45 0 01-8.902 0v-.023a4.451 4.451 0 014.45-4.451zm24.987-6.959A2.972 2.972 0 0132.41 6.69v.034a2.972 2.972 0 01-5.944 0V6.69a2.972 2.972 0 012.972-2.971zM12.633 20.586a2.958 2.958 0 012.958 2.958v.033a2.958 2.958 0 11-5.916 0v-.033a2.959 2.959 0 012.958-2.958zm6.41 5.498a3.958 3.958 0 010 7.916 3.958 3.958 0 010-7.916z"/><path fill="#fff" d="M8.659 7.693s.471 2.978-2.722 2.978l2.97 3.724s-.559-3.724 1.979-3.724zm7.917 0s-.472 2.978 2.72 2.978l-2.72 3.724s.31-3.724-2.227-3.724zm9.895-.744s-.256 3.03-2.968 3.722l1.979 1.986s.08-3.345 3.216-2.978zm-9.648 9.927s-.256 3.03-2.969 3.722l1.98 1.986s.08-3.346 3.215-2.978zm-1.06 11.664s-.208-2.371-2.404-2.913l1.603-1.554s.065 2.618 2.603 2.33zm13.434-8.193a2.972 2.972 0 012.972 2.972v.006a2.972 2.972 0 01-5.943 0v-.006a2.972 2.972 0 012.971-2.972zM24.595 0h.01a1.355 1.355 0 110 2.71h-.01a1.355 1.355 0 010-2.71z"/></svg>