<svg xmlns="http://www.w3.org/2000/svg" width="62" height="62"><path fill="#6f55eb" d="M62 29.7c0 .102-.036.19-.057.283-.013.056-.008.116-.028.173 0 .005-.005.005-.013.013-.016.036-.034.067-.052.101-.008.016-.002.033-.01.049L45.045 61.325c-.003.006-.01.008-.013.013-.016.028-.047.05-.065.078-.049.075-.106.14-.17.201-.031.031-.05.072-.086.101-.03.026-.067.034-.098.054-.023.016-.039.039-.064.052-.034.02-.073.028-.106.044a1.235 1.235 0 01-.308.096c-.033.005-.062.026-.095.028a1.066 1.066 0 01-.127.008h-.008c-.06 0-.124-.005-.183-.014L8.84 56.82c-.029-.005-.047-.031-.075-.036-.07-.013-.14-.016-.207-.041-.005-.003-.008-.003-.01-.003-.05-.02-.083-.06-.13-.085-.085-.047-.175-.088-.253-.158-.005-.005-.01-.007-.015-.013-.003-.002-.005-.008-.008-.01-.085-.08-.142-.179-.202-.277-.025-.046-.07-.085-.09-.134-.023-.054-.026-.111-.041-.165-.005-.026-.031-.04-.037-.065L.021 22.242c-.008-.026.01-.05.005-.075a1.257 1.257 0 01.062-.726c.103-.24.282-.414.48-.548.016-.01.021-.03.037-.041L34.195.18c.047-.027.098-.035.145-.057.064-.027.124-.069.194-.087l.02-.01c.016-.005.029 0 .042-.002.07-.017.142-.011.214-.014.073-.005.142-.018.217-.008.06.005.114.031.173.047a1.284 1.284 0 01.29.096c.007.005.01.01.018.015.041.023.072.06.11.088.073.051.15.095.213.163l25.838 28.422c.018.018.016.047.031.067.026.032.044.068.067.101.042.062.093.114.122.181.031.072.036.153.054.23.003.015.008.031.01.047.008.046.026.085.031.134.003.028.01.052.01.08 0 .01.006.018.006.028zM37.366 5.946l3.759 15.033 15.03 5.638zm4.162 17.943l.452 4.521h11.604zM12.827 49.525l11.082-12.007-4.173-5.269zm8.591-26.284H7.574l11.221 4.81zm4.263 12.357l4.25-4.605h-7.893zm-4.14-7.189h10.776l4.77-5.168H24.36zm14.292 0h3.556l-.35-3.475zM25.77 20.658h12.612L34.417 4.803zm-19.921 0h16.98l8.584-15.733zm3.514 30.575l8.335-20.841-14.586-6.254zm31.512 7.718L25.531 39.569 11.638 54.62zm1.318-2.499l-2.545-25.459h-6.199l-6.141 6.654zm16.346-25.459h-16.3l2.54 25.4z"/></svg>