<svg xmlns="http://www.w3.org/2000/svg" width="62" height="62"><path fill="#6f55eb" d="M62 1.292v41.333c0 .075-.031.142-.044.212-.015.095-.02.189-.057.279-.064.157-.16.302-.279.421L43.537 61.62c-.013.013-.029.016-.039.026a1.255 1.255 0 01-.873.354H1.292c-.168 0-.336-.034-.494-.104-.103-.041-.188-.113-.276-.18-.047-.036-.101-.054-.145-.096-.057-.057-.083-.126-.126-.19-.052-.076-.114-.14-.15-.225A1.272 1.272 0 010 60.706V19.38c0-.17.034-.338.098-.5.06-.143.15-.27.253-.38.013-.011.016-.027.026-.037L18.46.38c.122-.122.264-.215.424-.282.088-.036.184-.039.276-.054.073-.013.14-.044.215-.044h41.333c.098 0 .186.036.274.054.072.019.145.016.212.044.32.132.574.385.705.706.029.067.029.141.044.21.02.092.057.18.057.278zM4.41 18.083h13.673V4.41zM2.583 57.59l15.5-15.5V20.667h-15.5zm38.75-13.673H19.91l-15.5 15.5h36.923zm0-2.583V20.667H20.667v20.667zM57.59 2.584H20.667v15.5H42.09zm0 41.333H43.917V57.59zM59.417 4.41l-15.5 15.5v21.424h15.5z"/></svg>