<svg xmlns="http://www.w3.org/2000/svg" width="62" height="62"><path fill="#6f55eb" d="M61.962 53.247c-.01.041 0 .083-.015.126-.008.022-.029.037-.036.06-.013.036-.01.073-.029.106-.038.076-.1.129-.152.194-.039.049-.07.1-.114.144-.09.088-.197.153-.308.21-.038.02-.064.057-.106.072L41.82 61.91c-.039.016-.083.014-.124.023-.039.01-.067.037-.106.045a1.326 1.326 0 01-.246.023H16.79c-.088 0-.181-.008-.267-.026-.064-.013-.116-.054-.178-.078-.041-.015-.088-.01-.126-.03L.71 54.116c-.041-.021-.067-.057-.103-.08-.044-.03-.078-.06-.12-.094a1.257 1.257 0 01-.405-.545c-.005-.01-.018-.016-.02-.026-.003-.005-.003-.007-.003-.012l-.008-.013c-.023-.072-.013-.15-.023-.225-.013-.093-.037-.186-.029-.277.005-.064.036-.123.052-.186.026-.1.044-.204.09-.294.003-.01.003-.02.008-.029L28.58.668c.012-.026.033-.044.048-.067.01-.016.016-.03.026-.044.023-.036.06-.058.088-.09a.439.439 0 01.041-.053c.026-.028.047-.061.075-.088.034-.03.07-.056.109-.085.013-.007.026-.02.038-.028l.026-.015c.026-.016.057-.018.086-.034a.254.254 0 01.018-.008c.028-.015.054-.03.087-.044.026-.01.042-.03.068-.039.002-.002.008 0 .013-.002.036-.013.077-.018.116-.029.018-.002.031-.017.052-.02h.002c.042-.008.088.003.132 0 .029-.002.052-.024.083-.024.02-.002.028.011.049.011.028 0 .057 0 .085.003.016.002.029-.005.041-.003.019.003.031.013.05.016.026.005.049 0 .075.005h.002c.026.005.044.02.067.028.031.008.055.023.083.034.02.007.042.007.06.015.126.05.243.116.338.207.01.01.016.02.026.028.044.039.09.072.13.12l.051.067c.015.02.034.036.046.056.008.01.01.02.019.031 0 .005.005.005.007.01L61.83 52.294c.021.034.021.072.037.106.051.103.088.206.108.32.01.065.021.122.024.186.005.114-.01.225-.037.341zM35.2 12.947l11.064 31.338 11.07 5.534zm-.824 5.438l4.996 25.53h4.019zm-8.381 25.531H36.74L30.029 9.632zM4.006 50.69l14.708-4.901 7.852-36.1zm17.559-5.852l1.79-.596 1.957-16.635zm-3.49 3.886L4.648 53.198l11.235 5.61zm.319 10.692h21.378L37.245 46.5H24.752l-3.825 1.274zm39.177-6.59l-12.658-6.327h-5.035l2.432 12.43z"/></svg>