<svg xmlns="http://www.w3.org/2000/svg" width="62" height="68"><path fill="#6f55eb" d="M62 18.419v31.165c0 .068-.042.128-.05.193-.023.159-.037.32-.113.467-.006.008-.014.014-.02.023-.042.076-.118.128-.175.195-.098.12-.189.238-.318.318-.014.009-.02.025-.034.034L31.7 67.813a1.399 1.399 0 01-1.402 0l-29.59-17c-.012-.005-.017-.022-.032-.03-.138-.088-.24-.216-.343-.346-.048-.06-.113-.102-.15-.167-.005-.012-.017-.015-.022-.026a1.384 1.384 0 01-.138-.578C.02 49.638 0 49.613 0 49.584V18.419c0-.018.014-.034.014-.052a1.41 1.41 0 01.087-.476c.017-.04.048-.064.068-.101.031-.063.07-.114.11-.17a1.36 1.36 0 01.35-.349c.033-.023.047-.062.081-.085l29.591-17a1.4 1.4 0 011.398 0l29.59 17c.037.02.051.062.085.085.13.09.237.2.333.334.048.066.09.125.127.196.016.034.045.056.059.09.053.13.062.264.073.397.003.046.034.085.034.13zM35.65 5.723l11.368 16.625 10.337-4.156zM18.177 22.668h25.646L31 3.918zM4.641 18.192l10.335 4.156L26.342 5.726zM2.818 44.113l10.67-19.31-10.67-4.294zm.868 4.267l24.797 2.374-12.989-23.743zm25.905 5.3L7.778 51.612l21.813 12.529zm14.525-28.179H17.884L31 49.476zM54.21 51.618l-21.8 2.088v10.435zm4.104-3.235L46.508 27.02l-13 23.76zm.868-27.874l-10.676 4.293L59.182 44.12z"/></svg>